<svg width="210" height="82" viewBox="0 0 210 82" fill="none" xmlns="http://www.w3.org/2000/svg">
<path d="M133.767 30.0868C169.798 38.3437 195.381 14.136 203.67 1C210.55 5.0659 216.336 21.3608 184.435 54.0131C152.533 86.6654 87.9478 83.5691 59.6428 77.9394C66.3985 66.3046 50.26 62.1449 41.3463 61.5194C33.4647 47.6328 11.1648 50.7291 1 54.0131C4.44038 44.7866 19.2966 25.0201 51.1983 19.7657C91.0754 13.1977 88.7297 19.7657 133.767 30.0868Z" fill="#BF4C4C" stroke="#525252"/>
<ellipse cx="88.6157" cy="49.4533" rx="7.19649" ry="3.08421" transform="rotate(16.0034 88.6157 49.4533)" fill="#D9D9D9"/>
<ellipse rx="7.19649" ry="3.08421" transform="matrix(-0.961245 0.275694 0.275694 0.961245 123.358 49.4533)" fill="#D9D9D9"/>
<path d="M105.237 47.4876C100.441 44.5047 88.8841 39.2758 81.0233 42.2236C73.1624 45.1714 71.3142 46.9612 71.3727 47.4876C73.5953 51.9327 79.2335 60.472 84.0062 59.0682C89.972 57.3136 98.7452 54.1552 103.658 56.6117" stroke="#8E8E8E"/>
<path d="M105.062 47.4821C109.858 44.4993 121.415 39.2704 129.276 42.2182C137.137 45.166 138.985 46.9558 138.927 47.4821C136.704 51.9273 131.066 60.4665 126.293 59.0628C120.327 57.3082 111.554 54.1498 106.641 56.6063" stroke="#8E8E8E"/>
</svg>
