<svg width="203" height="211" viewBox="0 0 203 211" fill="none" xmlns="http://www.w3.org/2000/svg">
<circle cx="107.5" cy="139.5" r="55.5" transform="rotate(-20.6171 107.5 139.5)" fill="#A1B2F0"/>
<path d="M55.5545 159.043L52.3207 144.767L64.9561 140.013L81.4091 148.247L87.3724 142.799L90.4166 143.79L85.9776 151.871C88.7684 153.136 93.6829 155.596 91.014 155.318C88.3452 155.04 80.5826 159.777 77.0349 162.18L77.5074 166.276L65.2753 165.001L55.5545 159.043Z" fill="#72A677" stroke="#84B589" stroke-width="0.5"/>
<path d="M105.056 93.9429C107.068 93.6131 106.278 87.2508 105.63 84.1108L108.79 83.9904L114.351 84.5697L117.219 85.0934L120.087 85.617L123.599 86.4325L127.287 87.7161L130.507 89.1756C133.413 92.3561 130.047 96.4717 128 98.132C124.121 100.126 116.384 103.891 116.477 103.001C116.57 102.112 115.499 100.876 114.953 100.37C114.095 101.404 112.229 103.638 111.621 104.294C111.013 104.95 108.205 101.84 106.877 100.203C105.431 98.2535 103.043 94.2728 105.056 93.9429Z" fill="#72A677" stroke="#84B589" stroke-width="0.5"/>
<path d="M132.014 189.041L130.588 168.209L142.973 148.591L156.567 164.846L155.4 167.422L152.42 172.282L149.089 176.207L146.809 178.667L144.061 181.303L141.606 183.296L138.682 185.464C136.717 187.058 133.418 188.513 132.014 189.041Z" fill="#72A677" stroke="#84B589" stroke-width="0.5"/>
<path d="M87.1489 76.6694L107.93 74.5128C115.609 67.2731 128.132 55.584 138.816 45.8769L195.2 41.072C192.568 43.9673 179.076 58.1584 177.568 61.0615C176.878 61.942 177.31 69.2183 171.436 77.1616C164.093 87.0906 167.12 87.39 165.372 90.0256C163.974 92.134 164.834 97.1311 165.439 99.3661C166.406 106.015 168.209 119.795 167.687 121.726C167.036 124.139 167.769 136.767 167.991 137.863C168.168 138.739 165.641 151.039 164.355 157.079L164.919 172.251C165.002 176.417 164.913 184.162 163.89 181.814C162.867 179.466 159.956 169.53 158.629 164.856C159.328 163.801 157.492 154.363 156.487 149.775L156.184 133.638C157.644 128.232 154.067 117.184 152.096 112.336C151.43 109.049 149.308 101.95 146.145 99.8526C142.982 97.7555 139.218 100.571 137.731 102.242C135.02 112.282 130.708 123.133 128.891 127.304L123.624 142.972L119.061 159.867C116.67 162.329 111.572 167.27 110.309 167.344C109.047 167.417 106.497 174.428 105.38 177.925C104.177 181.743 101.706 188.844 101.455 186.705C101.204 184.566 101.766 176.603 102.079 172.89L111.856 136.687C112.794 133.211 111.737 129.934 111.88 128.925L120.354 97.5486C120.688 96.9485 120.385 95.8997 116.492 96.5058C112.599 97.1118 101.26 102.405 96.0775 104.976C84.4035 113.045 60.2491 129.483 57.0245 130.684C53.7999 131.884 47.2013 130.62 44.3051 129.838L24.1267 145.105C27.7572 137.799 42.9344 125.325 50.0692 120.001L86.2647 91.4501C86.2647 91.4501 42.9344 101.769 41.4296 102.13C39.9248 102.491 33.4238 99.0231 33.0016 98.8182C32.5794 98.6134 13.3834 110.093 13.3834 110.093C15.2606 103.142 26.9131 95.7929 32.5047 92.987L87.1489 76.6694Z" fill="#5A1B1B"/>
<path d="M107.93 74.5128L87.1489 76.6694L32.5047 92.987C26.9131 95.7929 15.2606 103.142 13.3834 110.093C13.3834 110.093 32.5794 98.6134 33.0016 98.8182C33.4238 99.0231 39.9248 102.491 41.4296 102.13C42.9344 101.769 86.2647 91.4501 86.2647 91.4501M107.93 74.5128C107.452 76.2827 105.716 80.0263 102.596 80.8409C99.4752 81.6556 94.9298 84.2951 93.0472 85.5131L86.2647 91.4501M107.93 74.5128C115.609 67.2731 128.132 55.584 138.816 45.8769L195.2 41.072C192.568 43.9673 179.076 58.1584 177.568 61.0615C176.878 61.942 177.31 69.2183 171.436 77.1616C164.093 87.0906 167.12 87.39 165.372 90.0256C163.974 92.134 164.834 97.1311 165.439 99.3661C166.406 106.015 168.209 119.795 167.687 121.726C167.036 124.139 167.769 136.767 167.991 137.863C168.168 138.739 165.641 151.039 164.355 157.079L164.919 172.251C165.002 176.417 164.913 184.162 163.89 181.814C162.867 179.466 159.956 169.53 158.629 164.856C159.328 163.801 157.492 154.363 156.487 149.775L156.184 133.638C157.644 128.232 154.067 117.184 152.096 112.336C151.43 109.049 149.308 101.95 146.145 99.8526C142.982 97.7555 139.218 100.571 137.731 102.242C135.02 112.282 130.708 123.133 128.891 127.304L123.624 142.972L119.061 159.867C116.67 162.329 111.572 167.27 110.309 167.344C109.047 167.417 106.497 174.428 105.38 177.925C104.177 181.743 101.706 188.844 101.455 186.705C101.204 184.566 101.766 176.603 102.079 172.89C104.947 162.27 110.917 140.162 111.856 136.687C112.794 133.211 111.737 129.934 111.88 128.925L120.354 97.5486C120.688 96.9485 120.385 95.8997 116.492 96.5058C112.599 97.1118 101.26 102.405 96.0775 104.976C84.4035 113.045 60.2491 129.483 57.0245 130.684C53.7999 131.884 47.2013 130.62 44.3051 129.838L24.1267 145.105C27.7572 137.799 42.9344 125.325 50.0692 120.001L86.2647 91.4501" stroke="#565656" stroke-width="0.5"/>
</svg>
