<svg width="173" height="189" viewBox="0 0 173 189" fill="none" xmlns="http://www.w3.org/2000/svg">
<circle cx="101.488" cy="71.4881" r="55.5" transform="rotate(-20.6171 101.488 71.4881)" fill="#A1B2F0"/>
<path d="M49.5427 91.0308L46.3088 76.7552L58.9442 72.0016L75.3973 80.2355L81.3606 74.7867L84.4047 75.7783L79.9658 83.8589C82.7566 85.1239 87.671 87.5843 85.0022 87.3063C82.3334 87.0282 74.5708 91.7649 71.0231 94.1681L71.4956 98.264L59.2634 96.9896L49.5427 91.0308Z" fill="#72A677" stroke="#84B589" stroke-width="0.5"/>
<path d="M99.0439 25.9311C101.057 25.6012 100.266 19.2389 99.6186 16.099L102.779 15.9786L108.339 16.5579L111.207 17.0815L114.075 17.6051L117.587 18.4207L121.275 19.7042L124.495 21.1638C127.401 24.3442 124.035 28.4599 121.988 30.1201C118.109 32.114 110.372 35.8792 110.465 34.9896C110.558 34.1 109.487 32.8644 108.941 32.3578C108.083 33.3926 106.217 35.6262 105.609 36.2822C105.001 36.9383 102.193 33.828 100.865 32.1908C99.4191 30.2417 97.0311 26.2609 99.0439 25.9311Z" fill="#72A677" stroke="#84B589" stroke-width="0.5"/>
<path d="M126.003 121.029L124.576 100.197L136.961 80.5796L150.555 96.8339L149.388 99.41L146.408 104.27L143.077 108.195L140.797 110.655L138.05 113.291L135.594 115.284L132.67 117.452C130.705 119.046 127.406 120.501 126.003 121.029Z" fill="#72A677" stroke="#84B589" stroke-width="0.5"/>
<path d="M64.6777 124.986L84.3331 132.069C90.0495 140.94 99.3995 155.294 107.441 167.282L161.023 185.483C159.162 182.041 149.472 165.026 148.705 161.845C148.247 160.825 150.413 153.865 146.617 144.744C141.873 133.342 144.883 133.778 143.82 130.8C142.969 128.418 145.003 123.774 146.127 121.749C148.662 115.527 153.72 102.583 153.678 100.583C153.624 98.084 157.368 86.0015 157.846 84.991C158.229 84.1827 158.729 71.6359 158.93 65.4635L163.12 50.8709C164.201 46.8469 165.974 39.3074 164.417 41.341C162.86 43.3747 157.65 52.3211 155.239 56.5401C155.665 57.7313 151.616 66.4529 149.539 70.6648L145.371 86.2572C145.49 91.856 139.365 101.722 136.288 105.955C134.853 108.987 131.088 115.368 127.514 116.645C123.941 117.921 120.962 114.284 119.92 112.306C119.698 101.908 118.118 90.3391 117.356 85.8543L116.004 69.3793L115.631 51.8833C113.901 48.9195 110.138 42.8984 108.93 42.524C107.722 42.1497 106.93 34.7315 106.685 31.0693C106.434 27.0737 105.74 19.5868 104.983 21.6034C104.226 23.62 102.86 31.4842 102.272 35.1643L103.071 72.6558C103.148 76.2549 101.335 79.1827 101.231 80.1967L101.924 112.689C102.105 113.352 101.558 114.297 97.9249 112.775C94.2917 111.252 84.5552 103.391 80.1412 99.6506C70.7457 89.0152 51.2442 67.2592 48.4022 65.3194C45.5602 63.3795 38.8511 63.0224 35.8517 63.0864L19.929 43.4213C21.6991 51.3854 33.4376 67.1387 39.0855 74.0199L67.3679 110.425C67.3679 110.425 27.7824 90.005 26.4082 89.2936C25.034 88.5822 17.8906 90.3877 17.4316 90.4852C16.9726 90.5827 1.09416 74.8299 1.09416 74.8299C1.24762 82.0282 10.7948 91.9603 15.5492 96.0266L64.6777 124.986Z" fill="#5A1B1B"/>
<path d="M84.3331 132.069L64.6777 124.986L15.5492 96.0266C10.7948 91.9603 1.24762 82.0282 1.09416 74.8299C1.09416 74.8299 16.9726 90.5827 17.4316 90.4852C17.8906 90.3877 25.034 88.5822 26.4082 89.2936C27.7824 90.005 67.3679 110.425 67.3679 110.425M84.3331 132.069C84.294 130.236 83.5075 126.185 80.674 124.645C77.8406 123.105 74.0618 119.451 72.5267 117.817L67.3679 110.425M84.3331 132.069C90.0495 140.94 99.3995 155.294 107.441 167.282L161.023 185.483C159.162 182.041 149.472 165.026 148.705 161.845C148.247 160.825 150.413 153.865 146.617 144.744C141.873 133.342 144.883 133.778 143.82 130.8C142.969 128.418 145.003 123.774 146.127 121.749C148.662 115.527 153.72 102.583 153.678 100.583C153.624 98.084 157.368 86.0015 157.846 84.991C158.229 84.1827 158.729 71.6359 158.93 65.4635L163.12 50.8709C164.201 46.8469 165.974 39.3074 164.417 41.341C162.86 43.3747 157.65 52.3211 155.239 56.5401C155.665 57.7313 151.616 66.4529 149.539 70.6648L145.371 86.2572C145.49 91.856 139.365 101.722 136.288 105.955C134.853 108.987 131.088 115.368 127.514 116.645C123.941 117.921 120.962 114.284 119.92 112.306C119.698 101.908 118.118 90.3391 117.356 85.8543L116.004 69.3793L115.631 51.8833C113.901 48.9195 110.138 42.8984 108.93 42.524C107.722 42.1497 106.93 34.7315 106.685 31.0693C106.434 27.0737 105.74 19.5868 104.983 21.6034C104.226 23.62 102.86 31.4842 102.272 35.1643C102.506 46.1618 102.994 69.0566 103.071 72.6558C103.148 76.2549 101.335 79.1827 101.231 80.1967L101.924 112.689C102.105 113.352 101.558 114.297 97.9249 112.775C94.2917 111.252 84.5552 103.391 80.1412 99.6506C70.7457 89.0152 51.2442 67.2592 48.4022 65.3194C45.5602 63.3795 38.8511 63.0224 35.8517 63.0864L19.929 43.4213C21.6991 51.3854 33.4376 67.1387 39.0855 74.0199L67.3679 110.425" stroke="#565656" stroke-width="0.5"/>
</svg>
