<svg width="287" height="287" viewBox="0 0 287 287" fill="none" xmlns="http://www.w3.org/2000/svg">
<circle r="55.5" transform="matrix(0.81052 0.585711 0.585711 -0.81052 114.042 124.31)" fill="#A1B2F0"/>
<path d="M69.0586 91.8029L62.1868 104.727L73.1288 112.634L91.1674 109.013L95.4892 115.838L98.6869 115.681L96.5275 106.718C99.5527 106.231 104.941 105.148 102.293 104.715C99.6448 104.282 93.3999 97.6719 90.6084 94.4209L92.1407 90.5932L80.0036 88.6082L69.0586 91.8029Z" fill="#72A677" stroke="#84B589" stroke-width="0.5"/>
<path d="M99.7117 167.623C101.567 168.471 99.1319 174.401 97.6824 177.261L100.7 178.207L106.217 179.11L109.121 179.358L112.026 179.607L115.629 179.743L119.525 179.474L123.016 178.912C126.655 176.607 124.489 171.751 122.951 169.611C119.731 166.668 113.256 161.002 113.112 161.885C112.968 162.767 111.61 163.678 110.95 164.023C110.394 162.8 109.181 160.154 108.767 159.361C108.352 158.569 104.825 160.831 103.114 162.062C101.207 163.563 97.8564 166.776 99.7117 167.623Z" fill="#72A677" stroke="#84B589" stroke-width="0.5"/>
<path d="M150.714 82.9527L143.863 102.677L150.658 124.86L168.046 112.75L167.596 109.957L165.999 104.485L163.816 99.8229L162.263 96.85L160.305 93.5842L158.459 91.0166L156.208 88.1561C154.731 86.1019 151.93 83.8313 150.714 82.9527Z" fill="#72A677" stroke="#84B589" stroke-width="0.5"/>
<path d="M170.19 151.475L156.615 167.356C156.038 177.894 155.017 194.994 153.962 209.391L116.409 251.723C116.322 247.811 116.322 228.23 115.415 225.087C115.307 223.974 109.981 218.998 108.765 209.194C107.245 196.938 104.846 198.807 104.296 195.692C103.857 193.201 99.79 190.172 97.8117 188.969C92.53 184.817 81.7285 176.072 80.7761 174.314C79.5855 172.115 70.3533 163.469 69.4374 162.827C68.7047 162.314 62.0616 151.659 58.8317 146.395L47.9693 135.788C45.0384 132.826 39.7666 127.152 42.126 128.149C44.4854 129.146 53.4405 134.341 57.6231 136.814C57.8429 138.06 65.6769 143.635 69.5664 146.267L80.9051 157.754C83.572 162.678 93.7764 168.22 98.5453 170.376C101.293 172.3 107.723 175.982 111.46 175.323C115.197 174.663 115.985 170.029 115.911 167.794C110.958 158.649 106.607 147.814 105.05 143.54L98.071 128.555L89.7367 113.167C89.7735 109.735 90.0633 102.641 90.928 101.718C91.7926 100.794 88.8095 93.9565 87.2098 90.6529C85.4514 87.0563 82.3485 80.2075 84.0045 81.5851C85.6604 82.9627 90.7393 89.1204 93.0717 92.0271L110.931 125.001C112.645 128.167 115.669 129.814 116.261 130.644L131.739 159.221C131.91 159.887 132.853 160.438 135.256 157.317C137.66 154.195 142.23 142.546 144.215 137.112C147.116 123.22 153.296 94.6641 154.805 91.572C156.315 88.4799 161.968 84.8495 164.606 83.4207L168.711 58.4527C171.114 66.2492 168.709 85.7474 167.207 94.5219L160.647 140.153C160.647 140.153 184.94 102.819 185.782 101.52C186.624 100.222 193.725 98.2561 194.172 98.1136C194.619 97.9712 200.621 76.4247 200.621 76.4247C204.05 82.7558 200.669 96.1111 198.55 101.997L170.19 151.475Z" fill="#5A1B1B"/>
<path d="M156.615 167.356L170.19 151.475L198.55 101.997C200.669 96.1111 204.05 82.7558 200.621 76.4247C200.621 76.4247 194.619 97.9712 194.172 98.1136C193.725 98.2561 186.624 100.222 185.782 101.52C184.94 102.819 160.647 140.153 160.647 140.153M156.615 167.356C155.742 165.744 154.421 161.835 156.121 159.094C157.821 156.354 159.297 151.309 159.822 149.129L160.647 140.153M156.615 167.356C156.038 177.894 155.017 194.994 153.962 209.391L116.409 251.723C116.322 247.811 116.322 228.23 115.415 225.087C115.307 223.974 109.981 218.998 108.765 209.194C107.245 196.938 104.846 198.807 104.296 195.692C103.857 193.201 99.79 190.172 97.8117 188.969C92.53 184.817 81.7285 176.072 80.7761 174.314C79.5855 172.115 70.3533 163.469 69.4374 162.827C68.7047 162.314 62.0616 151.659 58.8317 146.395L47.9693 135.788C45.0385 132.826 39.7666 127.152 42.126 128.149C44.4854 129.146 53.4405 134.341 57.6231 136.814C57.8429 138.06 65.6769 143.635 69.5664 146.267L80.9051 157.754C83.572 162.678 93.7764 168.22 98.5453 170.376C101.293 172.3 107.723 175.982 111.46 175.323C115.197 174.663 115.985 170.029 115.911 167.794C110.958 158.649 106.607 147.814 105.05 143.54L98.071 128.555L89.7367 113.167C89.7735 109.735 90.0633 102.641 90.928 101.718C91.7926 100.794 88.8095 93.9565 87.2098 90.6529C85.4514 87.0563 82.3486 80.2074 84.0045 81.5851C85.6604 82.9627 90.7393 89.1204 93.0717 92.0271C98.3104 101.7 109.216 121.836 110.931 125.001C112.645 128.167 115.669 129.814 116.261 130.644L131.739 159.221C131.91 159.887 132.853 160.438 135.256 157.317C137.66 154.195 142.23 142.546 144.215 137.112C147.116 123.22 153.296 94.6641 154.805 91.572C156.315 88.4799 161.968 84.8495 164.606 83.4207L168.711 58.4527C171.114 66.2492 168.709 85.7474 167.207 94.5219L160.647 140.153" stroke="#565656" stroke-width="0.5"/>
</svg>
