<svg width="425" height="183" viewBox="0 0 425 183" fill="none" xmlns="http://www.w3.org/2000/svg">
<path d="M92.7826 64.2973L0 10.7647L72.4228 91.9364L4.94453 183L87.5472 144.596L148.336 167.289L139.028 80.2989L194 45.6773L120.123 56.442L108.489 0L92.7826 64.2973Z" fill="#BF4C4C"/>
<path d="M365.324 115.13L338.412 162L379.219 125.415L425 159.502L405.693 117.775L417.102 87.0675L373.369 91.7691L355.963 64L361.375 101.319L333 107.196L365.324 115.13Z" fill="#BF4C4C"/>
<path d="M84.24 102.04C87.4133 102.893 89.7867 104.027 91.36 105.44C92.9333 106.827 93.72 108.64 93.72 110.88C93.72 112.667 93.16 114.267 92.04 115.68C90.92 117.093 89.2667 118.2 87.08 119C84.92 119.8 82.2933 120.2 79.2 120.2C75.5467 120.2 72.32 119.733 69.52 118.8C66.7467 117.84 64.5733 116.68 63 115.32L64.32 113.52C65.7067 114.613 67.4533 115.547 69.56 116.32C71.6667 117.093 73.9333 117.48 76.36 117.48C77.9333 117.48 79.12 117.253 79.92 116.8C80.7467 116.347 81.16 115.707 81.16 114.88C81.16 113.44 79.7333 112.32 76.88 111.52L71.68 110C68.8533 109.147 66.6667 107.96 65.12 106.44C63.6 104.92 62.84 103.12 62.84 101.04C62.84 99.3067 63.3867 97.7333 64.48 96.32C65.5733 94.9067 67.16 93.8 69.24 93C71.3467 92.1733 73.8667 91.76 76.8 91.76C79.6 91.76 82.1733 92.08 84.52 92.72C86.8933 93.36 88.8267 94.1333 90.32 95.04L89 96.88C87.7467 96.16 86.24 95.5467 84.48 95.04C82.7467 94.5333 80.92 94.28 79 94.28C77.32 94.28 76.0267 94.5467 75.12 95.08C74.24 95.5867 73.8 96.2933 73.8 97.2C73.8 97.8933 74.1333 98.5067 74.8 99.04C75.4667 99.5467 76.7333 100.053 78.6 100.56L84.24 102.04ZM109.451 120.2C104.624 120.2 101.171 119.493 99.0906 118.08C97.0373 116.667 96.0106 114.507 96.0106 111.6V92H111.291V111.6C111.291 113.493 111.704 114.88 112.531 115.76C113.384 116.613 114.504 117.04 115.891 117.04C118.984 117.04 120.531 115.227 120.531 111.6V92H122.891V111.6C122.891 113.867 122.411 115.627 121.451 116.88C120.491 118.107 119.051 118.973 117.131 119.48C115.211 119.96 112.651 120.2 109.451 120.2ZM125.112 92H150.512C152.859 92 154.752 92.68 156.192 94.04C157.632 95.3733 158.352 97.1867 158.352 99.48C158.352 100.84 158.019 102.107 157.352 103.28C156.686 104.453 155.766 105.387 154.592 106.08C153.419 106.773 152.086 107.12 150.592 107.12L138.392 107.16V120H125.112V92ZM139.792 104.84C140.752 104.84 141.632 104.613 142.432 104.16C143.259 103.68 143.899 103.04 144.352 102.24C144.832 101.413 145.072 100.533 145.072 99.6C145.072 98.64 144.832 97.76 144.352 96.96C143.899 96.1333 143.259 95.48 142.432 95C141.632 94.52 140.752 94.28 139.792 94.28H138.392V104.84H139.792ZM160.308 92H189.388V94.36H174.388V104.72H181.748V107.12H174.388V117.6H189.388V120H160.308V92ZM191.675 92H218.435C219.741 92 220.941 92.3333 222.035 93C223.155 93.64 224.035 94.52 224.675 95.64C225.341 96.7333 225.675 97.9333 225.675 99.24C225.675 100.973 225.141 102.547 224.075 103.96C223.008 105.373 221.661 106.28 220.035 106.68C221.475 107.08 222.648 107.84 223.555 108.96C224.488 110.08 224.955 111.347 224.955 112.76V120H211.555V111.32C211.555 110.467 211.395 109.8 211.075 109.32C210.701 108.76 210.275 108.347 209.795 108.08C209.261 107.787 208.661 107.573 207.995 107.44C207.301 107.307 206.648 107.227 206.035 107.2L204.955 107.16V120H191.675V92ZM206.355 104.84C207.315 104.84 208.195 104.613 208.995 104.16C209.821 103.68 210.461 103.04 210.915 102.24C211.395 101.413 211.635 100.533 211.635 99.6C211.635 98.64 211.395 97.76 210.915 96.96C210.461 96.1333 209.821 95.48 208.995 95C208.195 94.52 207.315 94.28 206.355 94.28H204.955V104.88L206.355 104.84ZM245.034 92H266.074C269.887 92 273.181 93.36 275.954 96.08C278.701 98.8267 280.074 102.12 280.074 105.96C280.074 109.853 278.701 113.173 275.954 115.92C273.207 118.64 269.914 120 266.074 120H245.034V92ZM261.434 117.68C262.954 117.68 264.047 117.187 264.714 116.2C265.354 115.24 265.754 113.88 265.914 112.12C266.047 110.973 266.114 108.92 266.114 105.96C266.114 103.667 266.034 101.48 265.874 99.4C265.714 97.8267 265.314 96.6267 264.674 95.8C264.007 94.8133 262.927 94.32 261.434 94.32H259.034V117.68H261.434ZM282.026 92H311.106V94.36H296.106V104.72H303.466V107.12H296.106V117.6H311.106V120H282.026V92ZM313.393 92H338.793C341.14 92 343.033 92.68 344.473 94.04C345.913 95.3733 346.633 97.1867 346.633 99.48C346.633 100.84 346.3 102.107 345.633 103.28C344.967 104.453 344.047 105.387 342.873 106.08C341.7 106.773 340.367 107.12 338.873 107.12L326.673 107.16V120H313.393V92ZM328.073 104.84C329.033 104.84 329.913 104.613 330.713 104.16C331.54 103.68 332.18 103.04 332.633 102.24C333.113 101.413 333.353 100.533 333.353 99.6C333.353 98.64 333.113 97.76 332.633 96.96C332.18 96.1333 331.54 95.48 330.713 95C329.913 94.52 329.033 94.28 328.073 94.28H326.673V104.84H328.073ZM366.762 120.2C363.189 120.2 359.962 119.653 357.082 118.56C354.202 117.467 351.922 115.853 350.242 113.72C348.589 111.56 347.762 108.973 347.762 105.96C347.762 102.973 348.602 100.413 350.282 98.28C351.962 96.1467 354.229 94.5333 357.082 93.44C359.962 92.32 363.189 91.76 366.762 91.76C370.309 91.76 373.509 92.32 376.362 93.44C379.242 94.5333 381.509 96.1467 383.162 98.28C384.842 100.413 385.682 102.973 385.682 105.96C385.682 108.973 384.842 111.56 383.162 113.72C381.509 115.853 379.242 117.467 376.362 118.56C373.509 119.653 370.309 120.2 366.762 120.2ZM366.762 117.84C367.882 117.84 368.709 117.333 369.242 116.32C369.695 115.547 370.002 114.173 370.162 112.2C370.242 111.16 370.282 109.08 370.282 105.96C370.282 102.813 370.215 100.587 370.082 99.28C370.002 97.68 369.709 96.4667 369.202 95.64C368.669 94.6267 367.855 94.12 366.762 94.12C365.642 94.12 364.802 94.6267 364.242 95.64C363.789 96.44 363.495 97.6533 363.362 99.28C363.255 100.667 363.202 102.893 363.202 105.96C363.202 109.427 363.242 111.507 363.322 112.2C363.429 114.04 363.722 115.413 364.202 116.32C364.762 117.333 365.615 117.84 366.762 117.84ZM392.227 94.36H381.707V92H416.787V94.36H406.227V120H392.227V94.36Z" fill="#3A3D83"/>
<path d="M84.24 102.04L84.4997 101.074L84.4938 101.073L84.24 102.04ZM91.36 105.44L90.6917 106.184L90.6988 106.19L91.36 105.44ZM92.04 115.68L92.8237 116.301L92.8237 116.301L92.04 115.68ZM87.08 119L86.7364 118.061L86.7327 118.062L87.08 119ZM69.52 118.8L69.1929 119.745L69.2038 119.749L69.52 118.8ZM63 115.32L62.1936 114.729L61.6478 115.473L62.346 116.077L63 115.32ZM64.32 113.52L64.9392 112.735L64.126 112.094L63.5136 112.929L64.32 113.52ZM69.56 116.32L69.9046 115.381L69.9046 115.381L69.56 116.32ZM79.92 116.8L79.4391 115.923L79.427 115.93L79.92 116.8ZM76.88 111.52L76.5994 112.48L76.61 112.483L76.88 111.52ZM71.68 110L71.391 110.957L71.3994 110.96L71.68 110ZM65.12 106.44L64.4129 107.147L64.4191 107.153L65.12 106.44ZM64.48 96.32L65.271 96.9319L65.271 96.9319L64.48 96.32ZM69.24 93L69.599 93.9334L69.6053 93.9309L69.24 93ZM84.52 92.72L84.2569 93.6848L84.2596 93.6855L84.52 92.72ZM90.32 95.04L91.1325 95.6229L91.7619 94.7456L90.839 94.1852L90.32 95.04ZM89 96.88L88.5019 97.7471L89.2857 98.1974L89.8125 97.4629L89 96.88ZM84.48 95.04L84.1994 95.9998L84.2034 96.001L84.48 95.04ZM75.12 95.08L75.619 95.9467L75.627 95.9419L75.12 95.08ZM74.8 99.04L74.1753 99.8209L74.185 99.8286L74.1949 99.8362L74.8 99.04ZM78.6 100.56L78.338 101.525L78.3462 101.527L78.6 100.56ZM83.9803 103.006C87.0779 103.839 89.2823 104.918 90.6917 106.184L92.0283 104.696C90.291 103.135 87.7488 101.948 84.4997 101.074L83.9803 103.006ZM90.6988 106.19C92.0407 107.373 92.72 108.905 92.72 110.88H94.72C94.72 108.375 93.826 106.28 92.0212 104.69L90.6988 106.19ZM92.72 110.88C92.72 112.439 92.2376 113.821 91.2563 115.059L92.8237 116.301C94.0824 114.713 94.72 112.894 94.72 110.88H92.72ZM91.2563 115.059C90.2797 116.291 88.7994 117.306 86.7364 118.061L87.4236 119.939C89.7339 119.094 91.5603 117.895 92.8237 116.301L91.2563 115.059ZM86.7327 118.062C84.7147 118.81 82.2129 119.2 79.2 119.2V121.2C82.3738 121.2 85.1253 120.79 87.4273 119.938L86.7327 118.062ZM79.2 119.2C75.6296 119.2 72.5133 118.744 69.8362 117.851L69.2038 119.749C72.1267 120.723 75.4637 121.2 79.2 121.2V119.2ZM69.8471 117.855C67.1481 116.921 65.1005 115.814 63.654 114.563L62.346 116.077C64.0461 117.546 66.3452 118.759 69.1929 119.745L69.8471 117.855ZM63.8064 115.911L65.1264 114.111L63.5136 112.929L62.1936 114.729L63.8064 115.911ZM63.7008 114.305C65.1893 115.479 67.0352 116.458 69.2154 117.259L69.9046 115.381C67.8715 114.635 66.224 113.748 64.9392 112.735L63.7008 114.305ZM69.2154 117.259C71.4411 118.076 73.8253 118.48 76.36 118.48V116.48C74.0413 116.48 71.8922 116.111 69.9046 115.381L69.2154 117.259ZM76.36 118.48C77.9986 118.48 79.3908 118.249 80.413 117.67L79.427 115.93C78.8493 116.257 77.8681 116.48 76.36 116.48V118.48ZM80.4008 117.677C81.4932 117.078 82.16 116.13 82.16 114.88H80.16C80.16 115.283 80.0002 115.616 79.4392 115.923L80.4008 117.677ZM82.16 114.88C82.16 113.775 81.5935 112.869 80.7075 112.173C79.8461 111.497 78.6329 110.973 77.15 110.557L76.61 112.483C77.9804 112.867 78.9073 113.303 79.4725 113.747C80.0131 114.171 80.16 114.545 80.16 114.88H82.16ZM77.1606 110.56L71.9606 109.04L71.3994 110.96L76.5994 112.48L77.1606 110.56ZM71.969 109.043C69.244 108.22 67.218 107.1 65.8209 105.727L64.4191 107.153C66.1154 108.82 68.4627 110.073 71.391 110.957L71.969 109.043ZM65.8271 105.733C64.4876 104.393 63.84 102.845 63.84 101.04H61.84C61.84 103.395 62.7124 105.447 64.4129 107.147L65.8271 105.733ZM63.84 101.04C63.84 99.5354 64.3086 98.1759 65.271 96.9319L63.689 95.7081C62.4647 97.2908 61.84 99.0779 61.84 101.04H63.84ZM65.271 96.9319C66.2278 95.695 67.6478 94.6838 69.599 93.9333L68.881 92.0667C66.6722 92.9162 64.9189 94.1183 63.689 95.7081L65.271 96.9319ZM69.6053 93.9309C71.5668 93.1612 73.9564 92.76 76.8 92.76V90.76C73.7769 90.76 71.1266 91.1855 68.8747 92.0691L69.6053 93.9309ZM76.8 92.76C79.5242 92.76 82.0077 93.0714 84.2569 93.6848L84.7831 91.7552C82.3389 91.0886 79.6758 90.76 76.8 90.76V92.76ZM84.2596 93.6855C86.5758 94.3101 88.4136 95.0524 89.801 95.8948L90.839 94.1852C89.2398 93.2143 87.2108 92.4099 84.7804 91.7545L84.2596 93.6855ZM89.5075 94.4571L88.1875 96.2971L89.8125 97.4629L91.1325 95.6229L89.5075 94.4571ZM89.4981 96.0129C88.1594 95.2438 86.5745 94.6023 84.7566 94.079L84.2034 96.001C85.9055 96.491 87.334 97.0762 88.5019 97.7471L89.4981 96.0129ZM84.7606 94.0802C82.9305 93.5452 81.009 93.28 79 93.28V95.28C80.831 95.28 82.5628 95.5214 84.1994 95.9998L84.7606 94.0802ZM79 93.28C77.238 93.28 75.7392 93.5556 74.613 94.2181L75.627 95.9419C76.3141 95.5378 77.402 95.28 79 95.28V93.28ZM74.621 94.2134C73.4759 94.8727 72.8 95.8867 72.8 97.2H74.8C74.8 96.7 75.0041 96.3007 75.619 95.9466L74.621 94.2134ZM72.8 97.2C72.8 98.2669 73.3319 99.1461 74.1753 99.8209L75.4247 98.2591C74.9348 97.8672 74.8 97.5197 74.8 97.2H72.8ZM74.1949 99.8362C75.0307 100.471 76.4679 101.017 78.3381 101.525L78.862 99.5949C76.9988 99.0892 75.9026 98.6219 75.4051 98.2438L74.1949 99.8362ZM78.3462 101.527L83.9862 103.007L84.4938 101.073L78.8538 99.5927L78.3462 101.527ZM99.0906 118.08L98.5236 118.904L98.5286 118.907L99.0906 118.08ZM96.0106 92V91H95.0106V92H96.0106ZM111.291 92H112.291V91H111.291V92ZM112.531 115.76L111.802 116.445L111.812 116.456L111.824 116.467L112.531 115.76ZM120.531 92V91H119.531V92H120.531ZM122.891 92H123.891V91H122.891V92ZM121.451 116.88L122.238 117.496L122.245 117.488L121.451 116.88ZM117.131 119.48L117.373 120.45L117.386 120.447L117.131 119.48ZM109.451 119.2C104.669 119.2 101.473 118.49 99.6526 117.253L98.5286 118.907C100.868 120.497 104.579 121.2 109.451 121.2V119.2ZM99.6576 117.256C97.9234 116.063 97.0106 114.241 97.0106 111.6H95.0106C95.0106 114.773 96.1512 117.271 98.5236 118.904L99.6576 117.256ZM97.0106 111.6V92H95.0106V111.6H97.0106ZM96.0106 93H111.291V91H96.0106V93ZM110.291 92V111.6H112.291V92H110.291ZM110.291 111.6C110.291 113.609 110.725 115.298 111.802 116.445L113.259 115.075C112.683 114.462 112.291 113.378 112.291 111.6H110.291ZM111.824 116.467C112.893 117.536 114.282 118.04 115.891 118.04V116.04C114.726 116.04 113.875 115.69 113.238 115.053L111.824 116.467ZM115.891 118.04C117.637 118.04 119.115 117.521 120.131 116.329C121.122 115.168 121.531 113.532 121.531 111.6H119.531C119.531 113.295 119.166 114.379 118.61 115.031C118.08 115.653 117.238 116.04 115.891 116.04V118.04ZM121.531 111.6V92H119.531V111.6H121.531ZM120.531 93H122.891V91H120.531V93ZM121.891 92V111.6H123.891V92H121.891ZM121.891 111.6C121.891 113.74 121.436 115.255 120.657 116.272L122.245 117.488C123.385 115.999 123.891 113.994 123.891 111.6H121.891ZM120.663 116.264C119.871 117.276 118.643 118.047 116.875 118.513L117.386 120.447C119.458 119.9 121.111 118.937 122.238 117.496L120.663 116.264ZM116.888 118.51C115.081 118.962 112.612 119.2 109.451 119.2V121.2C112.689 121.2 115.34 120.958 117.373 120.45L116.888 118.51ZM125.112 92V91H124.112V92H125.112ZM156.192 94.04L155.506 94.767L155.513 94.7738L156.192 94.04ZM157.352 103.28L158.222 103.774L158.222 103.774L157.352 103.28ZM154.592 106.08L155.101 106.941L155.101 106.941L154.592 106.08ZM150.592 107.12V106.12L150.589 106.12L150.592 107.12ZM138.392 107.16L138.389 106.16L137.392 106.163V107.16H138.392ZM138.392 120V121H139.392V120H138.392ZM125.112 120H124.112V121H125.112V120ZM142.432 104.16L142.925 105.03L142.934 105.025L142.432 104.16ZM144.352 102.24L143.487 101.738L143.482 101.747L144.352 102.24ZM144.352 96.96L143.475 97.4408L143.485 97.4578L143.495 97.4745L144.352 96.96ZM142.432 95L141.918 95.8575L141.924 95.8612L141.93 95.8648L142.432 95ZM138.392 94.28V93.28H137.392V94.28H138.392ZM138.392 104.84H137.392V105.84H138.392V104.84ZM125.112 93H150.512V91H125.112V93ZM150.512 93C152.654 93 154.285 93.614 155.506 94.767L156.879 93.313C155.22 91.746 153.064 91 150.512 91V93ZM155.513 94.7738C156.714 95.8856 157.352 97.4139 157.352 99.48H159.352C159.352 96.9594 158.551 94.8611 156.872 93.3062L155.513 94.7738ZM157.352 99.48C157.352 100.668 157.063 101.764 156.483 102.786L158.222 103.774C158.975 102.449 159.352 101.012 159.352 99.48H157.352ZM156.483 102.786C155.903 103.806 155.108 104.614 154.083 105.219L155.101 106.941C156.423 106.16 157.468 105.101 158.222 103.774L156.483 102.786ZM154.083 105.219C153.079 105.813 151.924 106.12 150.592 106.12V108.12C152.247 108.12 153.759 107.734 155.101 106.941L154.083 105.219ZM150.589 106.12L138.389 106.16L138.395 108.16L150.595 108.12L150.589 106.12ZM137.392 107.16V120H139.392V107.16H137.392ZM138.392 119H125.112V121H138.392V119ZM126.112 120V92H124.112V120H126.112ZM139.792 105.84C140.917 105.84 141.968 105.572 142.925 105.03L141.939 103.29C141.296 103.654 140.587 103.84 139.792 103.84V105.84ZM142.934 105.025C143.908 104.459 144.678 103.694 145.222 102.733L143.482 101.747C143.12 102.386 142.61 102.901 141.93 103.295L142.934 105.025ZM145.217 102.742C145.783 101.767 146.072 100.714 146.072 99.6H144.072C144.072 100.353 143.881 101.06 143.487 101.738L145.217 102.742ZM146.072 99.6C146.072 98.4643 145.786 97.4056 145.21 96.4455L143.495 97.4745C143.879 98.1144 144.072 98.8157 144.072 99.6H146.072ZM145.229 96.4792C144.687 95.4905 143.916 94.7053 142.934 94.1352L141.93 95.8648C142.601 96.2547 143.111 96.7762 143.475 97.4408L145.229 96.4792ZM142.947 94.1425C141.987 93.5665 140.928 93.28 139.792 93.28V95.28C140.576 95.28 141.278 95.4735 141.918 95.8575L142.947 94.1425ZM139.792 93.28H138.392V95.28H139.792V93.28ZM137.392 94.28V104.84H139.392V94.28H137.392ZM138.392 105.84H139.792V103.84H138.392V105.84ZM160.308 92V91H159.308V92H160.308ZM189.388 92H190.388V91H189.388V92ZM189.388 94.36V95.36H190.388V94.36H189.388ZM174.388 94.36V93.36H173.388V94.36H174.388ZM174.388 104.72H173.388V105.72H174.388V104.72ZM181.748 104.72H182.748V103.72H181.748V104.72ZM181.748 107.12V108.12H182.748V107.12H181.748ZM174.388 107.12V106.12H173.388V107.12H174.388ZM174.388 117.6H173.388V118.6H174.388V117.6ZM189.388 117.6H190.388V116.6H189.388V117.6ZM189.388 120V121H190.388V120H189.388ZM160.308 120H159.308V121H160.308V120ZM160.308 93H189.388V91H160.308V93ZM188.388 92V94.36H190.388V92H188.388ZM189.388 93.36H174.388V95.36H189.388V93.36ZM173.388 94.36V104.72H175.388V94.36H173.388ZM174.388 105.72H181.748V103.72H174.388V105.72ZM180.748 104.72V107.12H182.748V104.72H180.748ZM181.748 106.12H174.388V108.12H181.748V106.12ZM173.388 107.12V117.6H175.388V107.12H173.388ZM174.388 118.6H189.388V116.6H174.388V118.6ZM188.388 117.6V120H190.388V117.6H188.388ZM189.388 119H160.308V121H189.388V119ZM161.308 120V92H159.308V120H161.308ZM191.675 92V91H190.675V92H191.675ZM222.035 93L221.514 93.8538L221.526 93.8612L221.539 93.8682L222.035 93ZM224.675 95.64L223.806 96.1361L223.813 96.1485L223.821 96.1606L224.675 95.64ZM224.075 103.96L224.873 104.562L224.873 104.562L224.075 103.96ZM220.035 106.68L219.796 105.709L216.086 106.621L219.767 107.644L220.035 106.68ZM223.555 108.96L222.777 109.589L222.782 109.595L222.786 109.6L223.555 108.96ZM224.955 120V121H225.955V120H224.955ZM211.555 120H210.555V121H211.555V120ZM211.075 109.32L210.243 109.875L210.243 109.875L211.075 109.32ZM209.795 108.08L210.28 107.206L210.277 107.204L209.795 108.08ZM207.995 107.44L208.191 106.459L208.184 106.458L207.995 107.44ZM206.035 107.2L206.078 106.201L206.072 106.201L206.035 107.2ZM204.955 107.16L204.992 106.161L203.955 106.122V107.16H204.955ZM204.955 120V121H205.955V120H204.955ZM191.675 120H190.675V121H191.675V120ZM206.355 104.84V103.84H206.34L206.326 103.84L206.355 104.84ZM208.995 104.16L209.488 105.03L209.497 105.025L208.995 104.16ZM210.915 102.24L210.05 101.738L210.045 101.747L210.915 102.24ZM210.915 96.96L210.038 97.4408L210.047 97.4578L210.057 97.4745L210.915 96.96ZM208.995 95L208.48 95.8575L208.486 95.8612L208.493 95.8648L208.995 95ZM204.955 94.28V93.28H203.955V94.28H204.955ZM204.955 104.88H203.955V105.909L204.983 105.88L204.955 104.88ZM191.675 93H218.435V91H191.675V93ZM218.435 93C219.562 93 220.581 93.2848 221.514 93.8538L222.555 92.1462C221.302 91.3819 219.921 91 218.435 91V93ZM221.539 93.8682C222.504 94.4197 223.255 95.1712 223.806 96.1361L225.543 95.1439C224.814 93.8688 223.806 92.8603 222.531 92.1318L221.539 93.8682ZM223.821 96.1606C224.39 97.0938 224.675 98.1131 224.675 99.24H226.675C226.675 97.7536 226.293 96.3729 225.528 95.1194L223.821 96.1606ZM224.675 99.24C224.675 100.751 224.215 102.114 223.277 103.358L224.873 104.562C226.067 102.98 226.675 101.196 226.675 99.24H224.675ZM223.277 103.358C222.34 104.599 221.186 105.367 219.796 105.709L220.273 107.651C222.137 107.193 223.676 106.148 224.873 104.562L223.277 103.358ZM219.767 107.644C221.014 107.99 222.007 108.637 222.777 109.589L224.332 108.331C223.289 107.043 221.935 106.17 220.302 105.716L219.767 107.644ZM222.786 109.6C223.575 110.547 223.955 111.589 223.955 112.76H225.955C225.955 111.105 225.401 109.613 224.323 108.32L222.786 109.6ZM223.955 112.76V120H225.955V112.76H223.955ZM224.955 119H211.555V121H224.955V119ZM212.555 120V111.32H210.555V120H212.555ZM212.555 111.32C212.555 110.358 212.377 109.471 211.907 108.765L210.243 109.875C210.412 110.129 210.555 110.575 210.555 111.32H212.555ZM211.907 108.765C211.465 108.102 210.928 107.565 210.28 107.206L209.309 108.954C209.622 109.128 209.938 109.418 210.243 109.875L211.907 108.765ZM210.277 107.204C209.644 106.856 208.946 106.61 208.191 106.459L207.799 108.421C208.377 108.536 208.879 108.717 209.313 108.956L210.277 107.204ZM208.184 106.458C207.449 106.317 206.747 106.23 206.078 106.201L205.991 108.199C206.549 108.223 207.154 108.297 207.806 108.422L208.184 106.458ZM206.072 106.201L204.992 106.161L204.918 108.159L205.998 108.199L206.072 106.201ZM203.955 107.16V120H205.955V107.16H203.955ZM204.955 119H191.675V121H204.955V119ZM192.675 120V92H190.675V120H192.675ZM206.355 105.84C207.48 105.84 208.531 105.572 209.488 105.03L208.502 103.29C207.859 103.654 207.15 103.84 206.355 103.84V105.84ZM209.497 105.025C210.471 104.459 211.24 103.694 211.785 102.733L210.045 101.747C209.682 102.386 209.172 102.901 208.493 103.295L209.497 105.025ZM211.779 102.742C212.346 101.767 212.635 100.714 212.635 99.6H210.635C210.635 100.353 210.444 101.06 210.05 101.738L211.779 102.742ZM212.635 99.6C212.635 98.4643 212.348 97.4056 211.772 96.4455L210.057 97.4745C210.441 98.1144 210.635 98.8157 210.635 99.6H212.635ZM211.792 96.4792C211.249 95.4905 210.479 94.7053 209.497 94.1352L208.493 95.8648C209.164 96.2547 209.673 96.7762 210.038 97.4408L211.792 96.4792ZM209.509 94.1425C208.549 93.5665 207.49 93.28 206.355 93.28V95.28C207.139 95.28 207.84 95.4735 208.48 95.8575L209.509 94.1425ZM206.355 93.28H204.955V95.28H206.355V93.28ZM203.955 94.28V104.88H205.955V94.28H203.955ZM204.983 105.88L206.383 105.84L206.326 103.84L204.926 103.88L204.983 105.88ZM245.034 92V91H244.034V92H245.034ZM275.954 96.08L276.661 95.3729L276.654 95.3661L275.954 96.08ZM275.954 115.92L276.658 116.631L276.661 116.627L275.954 115.92ZM245.034 120H244.034V121H245.034V120ZM264.714 116.2L265.543 116.76L265.546 116.755L264.714 116.2ZM265.914 112.12L264.921 112.004L264.919 112.017L264.918 112.029L265.914 112.12ZM265.874 99.4L266.871 99.3233L266.87 99.3111L266.869 99.2988L265.874 99.4ZM264.674 95.8L263.845 96.3599L263.864 96.3866L263.883 96.4122L264.674 95.8ZM259.034 94.32V93.32H258.034V94.32H259.034ZM259.034 117.68H258.034V118.68H259.034V117.68ZM245.034 93H266.074V91H245.034V93ZM266.074 93C269.62 93 272.664 94.2535 275.254 96.7939L276.654 95.3661C273.698 92.4665 270.155 91 266.074 91V93ZM275.247 96.7871C277.809 99.3487 279.074 102.389 279.074 105.96H281.074C281.074 101.851 279.593 98.3047 276.661 95.3729L275.247 96.7871ZM279.074 105.96C279.074 109.589 277.806 112.654 275.247 115.213L276.661 116.627C279.596 113.692 281.074 110.118 281.074 105.96H279.074ZM275.25 115.209C272.69 117.745 269.649 119 266.074 119V121C270.18 121 273.725 119.535 276.658 116.631L275.25 115.209ZM266.074 119H245.034V121H266.074V119ZM246.034 120V92H244.034V120H246.034ZM261.434 118.68C263.183 118.68 264.639 118.097 265.543 116.76L263.885 115.64C263.456 116.276 262.725 116.68 261.434 116.68V118.68ZM265.546 116.755C266.315 115.601 266.742 114.056 266.91 112.211L264.918 112.029C264.766 113.704 264.393 114.879 263.882 115.645L265.546 116.755ZM266.907 112.236C267.048 111.024 267.114 108.917 267.114 105.96H265.114C265.114 108.923 265.047 110.922 264.921 112.004L266.907 112.236ZM267.114 105.96C267.114 103.644 267.033 101.431 266.871 99.3233L264.877 99.4767C265.035 101.529 265.114 103.69 265.114 105.96H267.114ZM266.869 99.2988C266.699 97.628 266.264 96.2198 265.465 95.1878L263.883 96.4122C264.364 97.0335 264.729 98.0253 264.879 99.5012L266.869 99.2988ZM265.503 95.2401C264.602 93.9077 263.164 93.32 261.434 93.32V95.32C262.691 95.32 263.412 95.719 263.845 96.3599L265.503 95.2401ZM261.434 93.32H259.034V95.32H261.434V93.32ZM258.034 94.32V117.68H260.034V94.32H258.034ZM259.034 118.68H261.434V116.68H259.034V118.68ZM282.026 92V91H281.026V92H282.026ZM311.106 92H312.106V91H311.106V92ZM311.106 94.36V95.36H312.106V94.36H311.106ZM296.106 94.36V93.36H295.106V94.36H296.106ZM296.106 104.72H295.106V105.72H296.106V104.72ZM303.466 104.72H304.466V103.72H303.466V104.72ZM303.466 107.12V108.12H304.466V107.12H303.466ZM296.106 107.12V106.12H295.106V107.12H296.106ZM296.106 117.6H295.106V118.6H296.106V117.6ZM311.106 117.6H312.106V116.6H311.106V117.6ZM311.106 120V121H312.106V120H311.106ZM282.026 120H281.026V121H282.026V120ZM282.026 93H311.106V91H282.026V93ZM310.106 92V94.36H312.106V92H310.106ZM311.106 93.36H296.106V95.36H311.106V93.36ZM295.106 94.36V104.72H297.106V94.36H295.106ZM296.106 105.72H303.466V103.72H296.106V105.72ZM302.466 104.72V107.12H304.466V104.72H302.466ZM303.466 106.12H296.106V108.12H303.466V106.12ZM295.106 107.12V117.6H297.106V107.12H295.106ZM296.106 118.6H311.106V116.6H296.106V118.6ZM310.106 117.6V120H312.106V117.6H310.106ZM311.106 119H282.026V121H311.106V119ZM283.026 120V92H281.026V120H283.026ZM313.393 92V91H312.393V92H313.393ZM344.473 94.04L343.787 94.767L343.794 94.7738L344.473 94.04ZM345.633 103.28L346.503 103.774L346.503 103.774L345.633 103.28ZM342.873 106.08L343.382 106.941L343.382 106.941L342.873 106.08ZM338.873 107.12V106.12L338.87 106.12L338.873 107.12ZM326.673 107.16L326.67 106.16L325.673 106.163V107.16H326.673ZM326.673 120V121H327.673V120H326.673ZM313.393 120H312.393V121H313.393V120ZM330.713 104.16L331.206 105.03L331.216 105.025L330.713 104.16ZM332.633 102.24L331.769 101.738L331.763 101.747L332.633 102.24ZM332.633 96.96L331.757 97.4408L331.766 97.4578L331.776 97.4745L332.633 96.96ZM330.713 95L330.199 95.8575L330.205 95.8612L330.211 95.8648L330.713 95ZM326.673 94.28V93.28H325.673V94.28H326.673ZM326.673 104.84H325.673V105.84H326.673V104.84ZM313.393 93H338.793V91H313.393V93ZM338.793 93C340.935 93 342.566 93.614 343.787 94.767L345.16 93.313C343.501 91.746 341.345 91 338.793 91V93ZM343.794 94.7738C344.995 95.8856 345.633 97.4139 345.633 99.48H347.633C347.633 96.9594 346.832 94.8611 345.153 93.3062L343.794 94.7738ZM345.633 99.48C345.633 100.668 345.344 101.764 344.764 102.786L346.503 103.774C347.256 102.449 347.633 101.012 347.633 99.48H345.633ZM344.764 102.786C344.184 103.806 343.389 104.614 342.365 105.219L343.382 106.941C344.704 106.16 345.749 105.101 346.503 103.774L344.764 102.786ZM342.365 105.219C341.36 105.813 340.205 106.12 338.873 106.12V108.12C340.528 108.12 342.04 107.734 343.382 106.941L342.365 105.219ZM338.87 106.12L326.67 106.16L326.677 108.16L338.877 108.12L338.87 106.12ZM325.673 107.16V120H327.673V107.16H325.673ZM326.673 119H313.393V121H326.673V119ZM314.393 120V92H312.393V120H314.393ZM328.073 105.84C329.198 105.84 330.249 105.572 331.206 105.03L330.22 103.29C329.578 103.654 328.869 103.84 328.073 103.84V105.84ZM331.216 105.025C332.189 104.459 332.959 103.694 333.503 102.733L331.763 101.747C331.401 102.386 330.891 102.901 330.211 103.295L331.216 105.025ZM333.498 102.742C334.065 101.767 334.353 100.714 334.353 99.6H332.353C332.353 100.353 332.162 101.06 331.769 101.738L333.498 102.742ZM334.353 99.6C334.353 98.4643 334.067 97.4056 333.491 96.4455L331.776 97.4745C332.16 98.1144 332.353 98.8157 332.353 99.6H334.353ZM333.51 96.4792C332.968 95.4905 332.197 94.7053 331.216 94.1352L330.211 95.8648C330.883 96.2547 331.392 96.7762 331.757 97.4408L333.51 96.4792ZM331.228 94.1425C330.268 93.5665 329.209 93.28 328.073 93.28V95.28C328.858 95.28 329.559 95.4735 330.199 95.8575L331.228 94.1425ZM328.073 93.28H326.673V95.28H328.073V93.28ZM325.673 94.28V104.84H327.673V94.28H325.673ZM326.673 105.84H328.073V103.84H326.673V105.84ZM357.082 118.56L356.727 119.495L356.727 119.495L357.082 118.56ZM350.242 113.72L349.448 114.328L349.456 114.339L350.242 113.72ZM350.282 98.28L349.496 97.6613L349.496 97.6613L350.282 98.28ZM357.082 93.44L357.44 94.3738L357.444 94.372L357.082 93.44ZM376.362 93.44L375.996 94.3709L376.007 94.3749L376.362 93.44ZM383.162 98.28L382.371 98.8926L382.376 98.8987L383.162 98.28ZM383.162 113.72L382.373 113.106L382.371 113.107L383.162 113.72ZM376.362 118.56L376.007 117.625L376.004 117.626L376.362 118.56ZM369.242 116.32L368.379 115.814L368.368 115.834L368.357 115.854L369.242 116.32ZM370.162 112.2L371.159 112.281L371.159 112.277L370.162 112.2ZM370.082 99.28L369.083 99.3299L369.084 99.3558L369.087 99.3815L370.082 99.28ZM369.202 95.64L368.317 96.1057L368.332 96.1347L368.349 96.1626L369.202 95.64ZM364.242 95.64L365.112 96.133L365.117 96.1237L364.242 95.64ZM363.362 99.28L362.365 99.1983L362.365 99.2033L363.362 99.28ZM363.322 112.2L364.32 112.142L364.319 112.114L364.315 112.085L363.322 112.2ZM364.202 116.32L363.318 116.788L363.322 116.796L363.327 116.804L364.202 116.32ZM366.762 119.2C363.291 119.2 360.187 118.669 357.437 117.625L356.727 119.495C359.737 120.638 363.086 121.2 366.762 121.2V119.2ZM357.437 117.625C354.703 116.587 352.581 115.074 351.028 113.101L349.456 114.339C351.263 116.633 353.701 118.346 356.727 119.495L357.437 117.625ZM351.036 113.112C349.531 111.146 348.762 108.779 348.762 105.96H346.762C346.762 109.168 347.646 111.974 349.448 114.328L351.036 113.112ZM348.762 105.96C348.762 103.174 349.54 100.838 351.068 98.8987L349.496 97.6613C347.663 99.9888 346.762 102.773 346.762 105.96H348.762ZM351.068 98.8987C352.622 96.9242 354.733 95.4109 357.44 94.3738L356.724 92.5062C353.724 93.6558 351.301 95.3692 349.496 97.6613L351.068 98.8987ZM357.444 94.372C360.192 93.3034 363.293 92.76 366.762 92.76V90.76C363.084 90.76 359.732 91.3366 356.719 92.508L357.444 94.372ZM366.762 92.76C370.203 92.76 373.276 93.3031 375.996 94.3709L376.727 92.5091C373.741 91.3369 370.414 90.76 366.762 90.76V92.76ZM376.007 94.3749C378.74 95.4123 380.846 96.9244 382.371 98.8926L383.952 97.6674C382.171 95.369 379.744 93.6543 376.717 92.5051L376.007 94.3749ZM382.376 98.8987C383.903 100.838 384.682 103.174 384.682 105.96H386.682C386.682 102.773 385.78 99.9888 383.948 97.6613L382.376 98.8987ZM384.682 105.96C384.682 108.775 383.902 111.14 382.373 113.106L383.951 114.334C385.782 111.98 386.682 109.172 386.682 105.96H384.682ZM382.371 113.107C380.846 115.076 378.74 116.588 376.007 117.625L376.717 119.495C379.744 118.346 382.171 116.631 383.952 114.333L382.371 113.107ZM376.004 117.626C373.282 118.669 370.206 119.2 366.762 119.2V121.2C370.412 121.2 373.735 120.637 376.72 119.494L376.004 117.626ZM366.762 118.84C367.477 118.84 368.151 118.676 368.744 118.313C369.337 117.949 369.792 117.423 370.127 116.786L368.357 115.854C368.159 116.231 367.933 116.464 367.699 116.607C367.466 116.75 367.167 116.84 366.762 116.84V118.84ZM370.105 116.826C370.682 115.84 370.998 114.265 371.159 112.281L369.165 112.119C369.006 114.081 368.708 115.253 368.379 115.814L370.105 116.826ZM371.159 112.277C371.242 111.192 371.282 109.074 371.282 105.96H369.282C369.282 109.086 369.241 111.128 369.165 112.123L371.159 112.277ZM371.282 105.96C371.282 102.813 371.216 100.541 371.077 99.1785L369.087 99.3815C369.215 100.632 369.282 102.814 369.282 105.96H371.282ZM371.081 99.2301C370.997 97.5595 370.688 96.1514 370.054 95.1174L368.349 96.1626C368.729 96.7819 369.007 97.8005 369.083 99.3299L371.081 99.2301ZM370.087 95.1743C369.754 94.5413 369.305 94.0152 368.721 93.6512C368.134 93.2857 367.468 93.12 366.762 93.12V95.12C367.149 95.12 367.437 95.2076 367.663 95.3488C367.892 95.4915 368.117 95.7254 368.317 96.1057L370.087 95.1743ZM366.762 93.12C366.046 93.12 365.372 93.2836 364.775 93.6437C364.18 94.0028 363.716 94.524 363.367 95.1563L365.117 96.1237C365.328 95.7427 365.564 95.5039 365.808 95.3563C366.051 95.2097 366.358 95.12 366.762 95.12V93.12ZM363.372 95.147C362.811 96.1361 362.503 97.5222 362.365 99.1983L364.359 99.3617C364.488 97.7845 364.766 96.7439 365.112 96.133L363.372 95.147ZM362.365 99.2033C362.255 100.631 362.202 102.891 362.202 105.96H364.202C364.202 102.896 364.255 100.702 364.359 99.3567L362.365 99.2033ZM362.202 105.96C362.202 109.397 362.24 111.549 362.328 112.315L364.315 112.085C364.244 111.464 364.202 109.456 364.202 105.96H362.202ZM362.324 112.258C362.433 114.145 362.737 115.69 363.318 116.788L365.086 115.852C364.707 115.136 364.424 113.935 364.32 112.142L362.324 112.258ZM363.327 116.804C363.678 117.44 364.148 117.962 364.751 118.32C365.355 118.678 366.037 118.84 366.762 118.84V116.84C366.34 116.84 366.022 116.748 365.772 116.6C365.522 116.452 365.286 116.214 365.077 115.836L363.327 116.804ZM392.227 94.36H393.227V93.36H392.227V94.36ZM381.707 94.36H380.707V95.36H381.707V94.36ZM381.707 92V91H380.707V92H381.707ZM416.787 92H417.787V91H416.787V92ZM416.787 94.36V95.36H417.787V94.36H416.787ZM406.227 94.36V93.36H405.227V94.36H406.227ZM406.227 120V121H407.227V120H406.227ZM392.227 120H391.227V121H392.227V120ZM392.227 93.36H381.707V95.36H392.227V93.36ZM382.707 94.36V92H380.707V94.36H382.707ZM381.707 93H416.787V91H381.707V93ZM415.787 92V94.36H417.787V92H415.787ZM416.787 93.36H406.227V95.36H416.787V93.36ZM405.227 94.36V120H407.227V94.36H405.227ZM406.227 119H392.227V121H406.227V119ZM393.227 120V94.36H391.227V120H393.227Z" fill="white"/>
</svg>
