<svg width="201" height="185" viewBox="0 0 201 185" fill="none" xmlns="http://www.w3.org/2000/svg">
<path d="M81.634 115.625L87.496 107.051C98.6711 100.526 110.168 105.263 114.519 108.447L119.466 117.58L116.764 117.44L100.092 125.456L81.634 115.625Z" fill="#7C0000"/>
<path d="M111.36 137.007C72.3347 137.007 31.683 122.1 16.2353 114.647C24.3656 132.994 48.4315 171.751 79.6521 180.007C118.678 190.327 111.36 181.727 128.434 180.007C142.093 178.631 174.777 135.86 189.412 114.647C179.655 122.1 150.386 137.007 111.36 137.007Z" fill="#7C0000"/>
<path d="M152.028 134.388C159.812 131.129 146.661 138.507 140.245 139.518C134.627 140.403 136.046 141.884 126.539 141.095C117.909 140.379 111.642 143.907 107.897 145.407C97.5583 139.118 88.771 142.947 83.3777 142.499C79.0632 142.141 59.4196 138.406 55.7495 139.007M152.028 134.388C143.643 148.173 116.724 165.871 99.6444 162.281C82.5652 158.691 61.2955 148.518 55.7495 139.007M152.028 134.388C151.491 140.86 123.27 151.093 108.589 153.494C103.121 153.946 74.4488 149.248 55.7495 139.007" stroke="#430000" stroke-width="0.5"/>
<path d="M26.929 53.6359L26.5677 53.8554L26.9341 54.0663C31.7448 56.8346 39.0483 62.31 45.2989 69.7265C51.5501 77.1437 56.7308 86.4815 57.3372 96.9781C57.9475 107.544 58.3296 112.308 58.5603 113.966C58.5892 114.174 58.6164 114.337 58.6421 114.46C58.6549 114.52 58.6681 114.574 58.6818 114.62C58.6943 114.661 58.7118 114.711 58.7378 114.754C58.7504 114.775 58.7747 114.811 58.8155 114.842C58.8612 114.877 58.9389 114.912 59.0333 114.891C59.1174 114.873 59.1673 114.82 59.1895 114.792C59.2133 114.762 59.2276 114.731 59.2361 114.711C59.2664 114.638 59.2829 114.535 59.2945 114.439C59.3441 114.033 59.3629 113.196 59.3631 112.279C60.6353 103.01 62.922 88.9942 67.1715 77.0201C69.2978 71.0289 71.9103 65.5635 75.1225 61.4618C78.3339 57.3609 82.1278 54.6433 86.6184 54.0978L87.1728 54.0304L86.7533 53.6618C79.6615 47.4308 71.9696 36.4725 65.8932 25.9438C62.8568 20.6827 60.228 15.536 58.2827 11.1513C56.334 6.75854 55.0817 3.15324 54.7816 0.966021L54.2861 1.03264C54.6621 3.88731 54.2875 7.91022 53.2172 12.5261C52.148 17.1372 50.3888 22.3221 48.0104 27.4942C43.2505 37.8454 36.027 48.1095 26.929 53.6359Z" fill="#3A3D83" stroke="black" stroke-width="0.5"/>
<path d="M108.106 53.6359L107.744 53.8554L108.111 54.0663C112.921 56.8346 120.225 62.31 126.475 69.7265C132.727 77.1437 137.907 86.4815 138.514 96.9781C139.124 107.544 139.506 112.308 139.737 113.966C139.766 114.174 139.793 114.337 139.819 114.46C139.831 114.52 139.845 114.574 139.858 114.62C139.871 114.661 139.888 114.711 139.914 114.754C139.927 114.775 139.951 114.811 139.992 114.842C140.038 114.877 140.115 114.912 140.21 114.891C140.294 114.873 140.344 114.82 140.366 114.792C140.39 114.762 140.404 114.731 140.413 114.711C140.443 114.638 140.459 114.535 140.471 114.439C140.521 114.033 140.539 113.196 140.54 112.279C141.812 103.01 144.099 88.9942 148.348 77.0201C150.474 71.0289 153.087 65.5635 156.299 61.4618C159.51 57.3609 163.304 54.6433 167.795 54.0978L168.349 54.0304L167.93 53.6618C160.838 47.4308 153.146 36.4725 147.07 25.9438C144.033 20.6827 141.405 15.536 139.459 11.1513C137.511 6.75854 136.258 3.15324 135.958 0.966021L135.463 1.03264C135.839 3.88731 135.464 7.91022 134.394 12.5261C133.325 17.1372 131.565 22.3221 129.187 27.4942C124.427 37.8454 117.204 48.1095 108.106 53.6359Z" fill="#3A3D83" stroke="black" stroke-width="0.5"/>
<path d="M0 71.353H25.7446H200.235V44.2942H0V71.353Z" fill="black"/>
</svg>
